<?xml version="1.0" encoding="UTF-8" standalone="no"?>
<!-- Created with Inkscape (http://www.inkscape.org/) -->

<svg
   xmlns:dc="http://purl.org/dc/elements/1.1/"
   xmlns:cc="http://creativecommons.org/ns#"
   xmlns:rdf="http://www.w3.org/1999/02/22-rdf-syntax-ns#"
   xmlns:svg="http://www.w3.org/2000/svg"
   xmlns="http://www.w3.org/2000/svg"
   xmlns:sodipodi="http://sodipodi.sourceforge.net/DTD/sodipodi-0.dtd"
   xmlns:inkscape="http://www.inkscape.org/namespaces/inkscape"
   width="30mm"
   height="30mm"
   viewBox="0 0 210 297"
   version="1.1"
   id="svg8"
   inkscape:version="0.92.2 (5c3e80d, 2017-08-06)"
   sodipodi:docname="drawing.svg">
  <defs
     id="defs2">
    <inkscape:perspective
       sodipodi:type="inkscape:persp3d"
       inkscape:vp_x="-275.62461 : -177.04726 : 1"
       inkscape:vp_y="0 : 3779.5275 : 0"
       inkscape:vp_z="518.07621 : -177.04726 : 1"
       inkscape:persp3d-origin="121.2258 : -364.13387 : 1"
       id="perspective4930" />
    <inkscape:perspective
       sodipodi:type="inkscape:persp3d"
       inkscape:vp_x="0 : 148.5 : 1"
       inkscape:vp_y="0 : 1000 : 0"
       inkscape:vp_z="210 : 148.5 : 1"
       inkscape:persp3d-origin="105 : 99 : 1"
       id="perspective3699" />
  </defs>
  <sodipodi:namedview
     id="base"
     pagecolor="#ffffff"
     bordercolor="#666666"
     borderopacity="1.0"
     inkscape:pageopacity="0.0"
     inkscape:pageshadow="2"
     inkscape:zoom="0.35"
     inkscape:cx="400"
     inkscape:cy="560"
     inkscape:document-units="mm"
     inkscape:current-layer="layer1"
     showgrid="false"
     inkscape:measure-start="0,0"
     inkscape:measure-end="0,0"
     inkscape:window-width="2736"
     inkscape:window-height="1699"
     inkscape:window-x="-13"
     inkscape:window-y="-13"
     inkscape:window-maximized="1" />
  <metadata
     id="metadata5">
    <rdf:RDF>
      <cc:Work
         rdf:about="">
        <dc:format>image/svg+xml</dc:format>
        <dc:type
           rdf:resource="http://purl.org/dc/dcmitype/StillImage" />
        <dc:title></dc:title>
      </cc:Work>
    </rdf:RDF>
  </metadata>
  <g
     inkscape:label="Layer 1"
     inkscape:groupmode="layer"
     id="layer1">
    <g
       sodipodi:type="inkscape:box3d"
       id="g3701"
       inkscape:perspectiveID="#perspective3699"
       inkscape:corner0="0.40300647 : 0.14024446 : 0 : 1"
       inkscape:corner7="-0.29493583 : 0.0044934057 : 0.25 : 1">
      <path
         sodipodi:type="inkscape:box3dside"
         id="path3703"
         style="fill:#353564;fill-rule:evenodd;stroke:none;stroke-linejoin:round"
         inkscape:box3dsidetype="6"
         d="m 74.839286,83.82143 v 96.75725 l 20.44165,-4.85156 V 93.603391 Z"
         points="74.839286,180.57868 95.280936,175.72712 95.280936,93.603391 74.839286,83.82143 " />
      <path
         sodipodi:type="inkscape:box3dside"
         id="path3711"
         style="fill:#afafde;fill-rule:evenodd;stroke:none;stroke-linejoin:round"
         inkscape:box3dsidetype="13"
         d="m 74.839286,180.57868 74.083334,31.75465 15.98777,-16.70917 -69.629454,-19.89704 z"
         points="148.92262,212.33333 164.91039,195.62416 95.280936,175.72712 74.839286,180.57868 " />
      <path
         sodipodi:type="inkscape:box3dside"
         id="path3713"
         style="fill:#e9e9ff;fill-rule:evenodd;stroke:none;stroke-linejoin:round"
         inkscape:box3dsidetype="11"
         d="M 95.280936,93.603391 164.91039,53.486014 V 195.62416 L 95.280936,175.72712 Z"
         points="164.91039,53.486014 164.91039,195.62416 95.280936,175.72712 95.280936,93.603391 " />
      <path
         sodipodi:type="inkscape:box3dside"
         id="path3705"
         style="fill:#4d4d9f;fill-rule:evenodd;stroke:none;stroke-linejoin:round"
         inkscape:box3dsidetype="5"
         d="M 74.839286,83.82143 148.92262,19.796177 164.91039,53.486014 95.280936,93.603391 Z"
         points="148.92262,19.796177 164.91039,53.486014 95.280936,93.603391 74.839286,83.82143 " />
      <path
         sodipodi:type="inkscape:box3dside"
         id="path3709"
         style="fill:#d7d7ff;fill-rule:evenodd;stroke:none;stroke-linejoin:round"
         inkscape:box3dsidetype="14"
         d="M 148.92262,19.796177 V 212.33333 l 15.98777,-16.70917 V 53.486014 Z"
         points="148.92262,212.33333 164.91039,195.62416 164.91039,53.486014 148.92262,19.796177 " />
      <path
         sodipodi:type="inkscape:box3dside"
         id="path3707"
         style="fill:#8686bf;fill-rule:evenodd;stroke:none;stroke-linejoin:round"
         inkscape:box3dsidetype="3"
         d="M 74.839286,83.82143 148.92262,19.796177 V 212.33333 L 74.839286,180.57868 Z"
         points="148.92262,19.796177 148.92262,212.33333 74.839286,180.57868 74.839286,83.82143 " />
    </g>
    <g
       sodipodi:type="inkscape:box3d"
       id="g3715"
       inkscape:perspectiveID="#perspective3699"
       inkscape:corner0="0.69387367 : -0.071305969 : 0 : 1"
       inkscape:corner7="-9.1704495 : -0.10600365 : 0.25 : 1">
      <path
         sodipodi:type="inkscape:box3dside"
         id="path3717"
         style="fill:#353564;fill-rule:evenodd;stroke:none;stroke-linejoin:round"
         inkscape:box3dsidetype="6"
         d="m 61.988095,219.81935 v 20.48422 l 19.035691,-11.80678 v -17.84976 z"
         points="61.988095,240.30357 81.023786,228.49679 81.023786,210.64703 61.988095,219.81935 " />
      <path
         sodipodi:type="inkscape:box3dside"
         id="path3721"
         style="fill:#8686bf;fill-rule:evenodd;stroke:none;stroke-linejoin:round"
         inkscape:box3dsidetype="3"
         d="M 61.988095,219.81935 -12.85119,133.71429 v -4.24673 l 74.839285,110.83601 z"
         points="-12.85119,133.71429 -12.85119,129.46756 61.988095,240.30357 61.988095,219.81935 " />
      <path
         sodipodi:type="inkscape:box3dside"
         id="path3719"
         style="fill:#4d4d9f;fill-rule:evenodd;stroke:none;stroke-linejoin:round"
         inkscape:box3dsidetype="5"
         d="m 61.988095,219.81935 -74.839285,-86.10506 -7.034046,-0.4667 100.909022,77.39944 z"
         points="-12.85119,133.71429 -19.885236,133.24759 81.023786,210.64703 61.988095,219.81935 " />
      <path
         sodipodi:type="inkscape:box3dside"
         id="path3727"
         style="fill:#e9e9ff;fill-rule:evenodd;stroke:none;stroke-linejoin:round"
         inkscape:box3dsidetype="11"
         d="M 81.023786,210.64703 -19.885236,133.24759 v -4.38077 l 100.909022,99.62997 z"
         points="-19.885236,133.24759 -19.885236,128.86682 81.023786,228.49679 81.023786,210.64703 " />
      <path
         sodipodi:type="inkscape:box3dside"
         id="path3725"
         style="fill:#afafde;fill-rule:evenodd;stroke:none;stroke-linejoin:round"
         inkscape:box3dsidetype="13"
         d="M 61.988095,240.30357 -12.85119,129.46756 -19.885236,128.86682 81.023786,228.49679 Z"
         points="-12.85119,129.46756 -19.885236,128.86682 81.023786,228.49679 61.988095,240.30357 " />
      <path
         sodipodi:type="inkscape:box3dside"
         id="path3723"
         style="fill:#d7d7ff;fill-rule:evenodd;stroke:none;stroke-linejoin:round"
         inkscape:box3dsidetype="14"
         d="m -12.85119,133.71429 v -4.24673 l -7.034046,-0.60074 v 4.38077 z"
         points="-12.85119,129.46756 -19.885236,128.86682 -19.885236,133.24759 -12.85119,133.71429 " />
    </g>
    <g
       sodipodi:type="inkscape:box3d"
       id="g3729"
       inkscape:perspectiveID="#perspective3699"
       inkscape:corner0="0.15748034 : 0.041239177 : 0 : 1"
       inkscape:corner7="-4.3877473 : -0.21827322 : 0.25 : 1">
      <path
         sodipodi:type="inkscape:box3dside"
         id="path3731"
         style="fill:#353564;fill-rule:evenodd;stroke:none;stroke-linejoin:round"
         inkscape:box3dsidetype="6"
         d="M 90.714286,155.63691 V 379.84148 L 111.9021,338.75006 V 154.36923 Z"
         points="90.714286,379.84148 111.9021,338.75006 111.9021,154.36923 90.714286,155.63691 " />
      <path
         sodipodi:type="inkscape:box3dside"
         id="path3735"
         style="fill:#8686bf;fill-rule:evenodd;stroke:none;stroke-linejoin:round"
         inkscape:box3dsidetype="3"
         d="M 90.714286,155.63691 -30.994048,146.06156 V 69.458332 L 90.714286,379.84148 Z"
         points="-30.994048,146.06156 -30.994048,69.458332 90.714286,379.84148 90.714286,155.63691 " />
      <path
         sodipodi:type="inkscape:box3dside"
         id="path3733"
         style="fill:#4d4d9f;fill-rule:evenodd;stroke:none;stroke-linejoin:round"
         inkscape:box3dsidetype="5"
         d="m 90.714286,155.63691 -121.708334,-9.57535 -19.2012,-0.19428 162.097348,8.50195 z"
         points="-30.994048,146.06156 -50.195248,145.86728 111.9021,154.36923 90.714286,155.63691 " />
      <path
         sodipodi:type="inkscape:box3dside"
         id="path3741"
         style="fill:#e9e9ff;fill-rule:evenodd;stroke:none;stroke-linejoin:round"
         inkscape:box3dsidetype="11"
         d="M 111.9021,154.36923 -50.195248,145.86728 V 63.160687 L 111.9021,338.75006 Z"
         points="-50.195248,145.86728 -50.195248,63.160687 111.9021,338.75006 111.9021,154.36923 " />
      <path
         sodipodi:type="inkscape:box3dside"
         id="path3739"
         style="fill:#afafde;fill-rule:evenodd;stroke:none;stroke-linejoin:round"
         inkscape:box3dsidetype="13"
         d="M 90.714286,379.84148 -30.994048,69.458332 -50.195248,63.160687 111.9021,338.75006 Z"
         points="-30.994048,69.458332 -50.195248,63.160687 111.9021,338.75006 90.714286,379.84148 " />
      <path
         sodipodi:type="inkscape:box3dside"
         id="path3737"
         style="fill:#d7d7ff;fill-rule:evenodd;stroke:none;stroke-linejoin:round"
         inkscape:box3dsidetype="14"
         d="M -30.994048,146.06156 V 69.458332 l -19.2012,-6.297645 v 82.706593 z"
         points="-30.994048,69.458332 -50.195248,63.160687 -50.195248,145.86728 -30.994048,146.06156 " />
    </g>
    <g
       sodipodi:type="inkscape:box3d"
       id="g3743"
       inkscape:perspectiveID="#perspective3699"
       inkscape:corner0="0.3103551 : 0.15406323 : 0 : 1"
       inkscape:corner7="-0.08619973 : 0.01189277 : 0.25 : 1">
      <path
         sodipodi:type="inkscape:box3dside"
         id="path3745"
         style="fill:#353564;fill-rule:evenodd;stroke:none;stroke-linejoin:round"
         inkscape:box3dsidetype="6"
         d="M 80.130953,68.702378 V 177.20003 l 20.807607,-4.59831 V 81.487548 Z"
         points="80.130953,177.20003 100.93856,172.60172 100.93856,81.487548 80.130953,68.702378 " />
      <path
         sodipodi:type="inkscape:box3dside"
         id="path3753"
         style="fill:#afafde;fill-rule:evenodd;stroke:none;stroke-linejoin:round"
         inkscape:box3dsidetype="13"
         d="m 80.130953,177.20003 34.773807,12.45473 20.42774,-8.8406 -34.39394,-8.21244 z"
         points="114.90476,189.65476 135.3325,180.81416 100.93856,172.60172 80.130953,177.20003 " />
      <path
         sodipodi:type="inkscape:box3dside"
         id="path3755"
         style="fill:#e9e9ff;fill-rule:evenodd;stroke:none;stroke-linejoin:round"
         inkscape:box3dsidetype="11"
         d="M 100.93856,81.487548 135.3325,58.653636 V 180.81416 l -34.39394,-8.21244 z"
         points="135.3325,58.653636 135.3325,180.81416 100.93856,172.60172 100.93856,81.487548 " />
      <path
         sodipodi:type="inkscape:box3dside"
         id="path3747"
         style="fill:#4d4d9f;fill-rule:evenodd;stroke:none;stroke-linejoin:round"
         inkscape:box3dsidetype="5"
         d="M 80.130953,68.702378 114.90476,34.073219 135.3325,58.653636 100.93856,81.487548 Z"
         points="114.90476,34.073219 135.3325,58.653636 100.93856,81.487548 80.130953,68.702378 " />
      <path
         sodipodi:type="inkscape:box3dside"
         id="path3751"
         style="fill:#d7d7ff;fill-rule:evenodd;stroke:none;stroke-linejoin:round"
         inkscape:box3dsidetype="14"
         d="M 114.90476,34.073219 V 189.65476 l 20.42774,-8.8406 V 58.653636 Z"
         points="114.90476,189.65476 135.3325,180.81416 135.3325,58.653636 114.90476,34.073219 " />
      <path
         sodipodi:type="inkscape:box3dside"
         id="path3749"
         style="fill:#8686bf;fill-rule:evenodd;stroke:none;stroke-linejoin:round"
         inkscape:box3dsidetype="3"
         d="M 80.130953,68.702378 114.90476,34.073219 V 189.65476 L 80.130953,177.20003 Z"
         points="114.90476,34.073219 114.90476,189.65476 80.130953,177.20003 80.130953,68.702378 " />
    </g>
    <g
       sodipodi:type="inkscape:box3d"
       id="g3771"
       inkscape:perspectiveID="#perspective3699"
       inkscape:corner0="3.4805691 : -0.019784726 : 0 : 1"
       inkscape:corner7="0.060287336 : -0.178929 : 0.25 : 1">
      <path
         sodipodi:type="inkscape:box3dside"
         id="path3773"
         style="fill:#353564;fill-rule:evenodd;stroke:none;stroke-linejoin:round"
         inkscape:box3dsidetype="6"
         d="m 23.434524,163.96338 v 35.51876 l 9.859568,-2.69429 v -33.64167 z"
         points="23.434524,199.48214 33.294092,196.78785 33.294092,163.14618 23.434524,163.96338 " />
      <path
         sodipodi:type="inkscape:box3dside"
         id="path3781"
         style="fill:#afafde;fill-rule:evenodd;stroke:none;stroke-linejoin:round"
         inkscape:box3dsidetype="13"
         d="M 23.434524,199.48214 99.029762,363.94065 120.20265,322.83504 33.294092,196.78785 Z"
         points="99.029762,363.94065 120.20265,322.83504 33.294092,196.78785 23.434524,199.48214 " />
      <path
         sodipodi:type="inkscape:box3dside"
         id="path3783"
         style="fill:#e9e9ff;fill-rule:evenodd;stroke:none;stroke-linejoin:round"
         inkscape:box3dsidetype="11"
         d="m 33.294092,163.14618 86.908558,38.23133 V 322.83504 L 33.294092,196.78785 Z"
         points="120.20265,201.37751 120.20265,322.83504 33.294092,196.78785 33.294092,163.14618 " />
      <path
         sodipodi:type="inkscape:box3dside"
         id="path3775"
         style="fill:#4d4d9f;fill-rule:evenodd;stroke:none;stroke-linejoin:round"
         inkscape:box3dsidetype="5"
         d="M 23.434524,163.96338 99.029762,213.84524 120.20265,201.37751 33.294092,163.14618 Z"
         points="99.029762,213.84524 120.20265,201.37751 33.294092,163.14618 23.434524,163.96338 " />
      <path
         sodipodi:type="inkscape:box3dside"
         id="path3779"
         style="fill:#d7d7ff;fill-rule:evenodd;stroke:none;stroke-linejoin:round"
         inkscape:box3dsidetype="14"
         d="M 99.029762,213.84524 V 363.94065 L 120.20265,322.83504 V 201.37751 Z"
         points="99.029762,363.94065 120.20265,322.83504 120.20265,201.37751 99.029762,213.84524 " />
      <path
         sodipodi:type="inkscape:box3dside"
         id="path3777"
         style="fill:#8686bf;fill-rule:evenodd;stroke:none;stroke-linejoin:round"
         inkscape:box3dsidetype="3"
         d="m 23.434524,163.96338 75.595238,49.88186 V 363.94065 L 23.434524,199.48214 Z"
         points="99.029762,213.84524 99.029762,363.94065 23.434524,199.48214 23.434524,163.96338 " />
    </g>
    <g
       sodipodi:type="inkscape:box3d"
       id="g3785"
       inkscape:perspectiveID="#perspective3699"
       inkscape:corner0="0.61508885 : 0.078263971 : 0 : 1"
       inkscape:corner7="-0.098067266 : 0.026017541 : 0.25 : 1">
      <path
         sodipodi:type="inkscape:box3dside"
         id="path3787"
         style="fill:#353564;fill-rule:evenodd;stroke:none;stroke-linejoin:round"
         inkscape:box3dsidetype="6"
         d="m 65.011905,130.69048 v 32.34895 l 19.434476,-1.9489 V 133.0777 Z"
         points="65.011905,163.03943 84.446381,161.09053 84.446381,133.0777 65.011905,130.69048 " />
      <path
         sodipodi:type="inkscape:box3dside"
         id="path3795"
         style="fill:#afafde;fill-rule:evenodd;stroke:none;stroke-linejoin:round"
         inkscape:box3dsidetype="13"
         d="m 65.011905,163.03943 51.404765,11.49628 20.31007,-5.65044 -52.280359,-7.79474 z"
         points="116.41667,174.53571 136.72674,168.88527 84.446381,161.09053 65.011905,163.03943 " />
      <path
         sodipodi:type="inkscape:box3dside"
         id="path3797"
         style="fill:#e9e9ff;fill-rule:evenodd;stroke:none;stroke-linejoin:round"
         inkscape:box3dsidetype="11"
         d="m 84.446381,133.0777 52.280359,-9.54788 v 45.35545 l -52.280359,-7.79474 z"
         points="136.72674,123.52982 136.72674,168.88527 84.446381,161.09053 84.446381,133.0777 " />
      <path
         sodipodi:type="inkscape:box3dside"
         id="path3789"
         style="fill:#4d4d9f;fill-rule:evenodd;stroke:none;stroke-linejoin:round"
         inkscape:box3dsidetype="5"
         d="m 65.011905,130.69048 51.404765,-14.08196 20.31007,6.9213 -52.280359,9.54788 z"
         points="116.41667,116.60852 136.72674,123.52982 84.446381,133.0777 65.011905,130.69048 " />
      <path
         sodipodi:type="inkscape:box3dside"
         id="path3793"
         style="fill:#d7d7ff;fill-rule:evenodd;stroke:none;stroke-linejoin:round"
         inkscape:box3dsidetype="14"
         d="m 116.41667,116.60852 v 57.92719 l 20.31007,-5.65044 v -45.35545 z"
         points="116.41667,174.53571 136.72674,168.88527 136.72674,123.52982 116.41667,116.60852 " />
      <path
         sodipodi:type="inkscape:box3dside"
         id="path3791"
         style="fill:#8686bf;fill-rule:evenodd;stroke:none;stroke-linejoin:round"
         inkscape:box3dsidetype="3"
         d="m 65.011905,130.69048 51.404765,-14.08196 v 57.92719 L 65.011905,163.03943 Z"
         points="116.41667,116.60852 116.41667,174.53571 65.011905,163.03943 65.011905,130.69048 " />
    </g>
    <path
       id="path4932"
       d="M 39.839206,81.688992 C 37.528235,75.766069 34.528947,69.33363 28.430053,66.468778 27.301378,65.9386 26.04585,65.736945 24.853749,65.371029 c 1.562643,-2.742528 -9.396519,2.560159 -7.261493,1.335916 1.649956,-0.946097 4.398217,-3.942718 5.247438,-2.240873 0.900995,1.805602 -2.881221,2.834476 -4.180995,4.378034 -3.558517,4.225954 -4.807556,6.634544 -7.733681,11.354155 -5.5438775,10.253945 -9.9164365,21.273649 -12.0752271,32.765969 -0.3857505,2.05354 -0.6114422,4.13395 -0.9171634,6.20092 -0.8408486,8.78368 -0.1807389,17.81664 3.4877139,25.94993 0.5702906,1.26439 1.2944582,2.45357 1.9416875,3.68035 2.409722,3.71767 5.465319,7.20838 9.7713031,8.72844 2.248702,0.79381 3.045957,0.61966 5.370661,0.6541 2.716394,-0.44929 2.667116,-0.2624 5.240966,-1.43226 0.919519,-0.41794 3.571106,-1.88943 2.68177,-1.4106 -11.026509,5.93673 -7.156146,4.42815 -3.986901,1.21559 0.951926,-0.96494 1.760076,-2.06185 2.640114,-3.09277 4.863681,-7.10679 7.915308,-15.33619 9.616561,-23.75379 0.378534,-1.87295 0.611153,-3.77246 0.916731,-5.65869 1.342281,-10.00678 1.237768,-20.10766 0.567695,-30.156682 -0.332798,-2.439353 -0.356912,-5.056942 -1.291553,-7.383362 -0.127005,-0.316129 -0.283348,-0.646406 -0.544936,-0.864674 -0.122298,-0.102045 -0.618143,0.08653 -0.477702,0.01138 3.052908,-1.633448 6.172226,-3.139628 9.258342,-4.709441 -0.285874,0.387284 -0.647835,0.728605 -0.857618,1.161849 -1.589143,3.281897 -2.022168,7.346871 -2.567387,10.880987 -0.835144,5.413415 -0.869931,6.39717 -1.475195,12.048633 -1.148101,13.12651 -1.602938,26.33372 -0.907978,39.49964 0.145349,2.75359 0.388731,5.50113 0.583096,8.2517 0.923775,14.11799 3.778248,27.98136 7.27083,41.65768 2.327902,8.90173 5.464333,17.55805 8.871159,26.09532 2.797159,6.58417 6.101916,12.92639 9.972815,18.9392 1.721561,2.38215 5.279935,7.87345 8.707305,7.84564 0.526523,-0.004 1.014582,-0.28213 1.521872,-0.4232 -2.688259,1.44692 -5.23,3.20746 -8.064777,4.34074 -0.758489,0.30323 1.206828,-1.11892 1.676873,-1.78699 0.612796,-0.87095 1.108401,-1.82483 1.547122,-2.79519 1.917269,-4.24059 2.888247,-8.9213 4.021834,-13.40524 3.095799,-13.15847 4.550613,-26.62325 5.384363,-40.09211 C 79.71865,178.9354 78.783915,164.7213 77.201595,150.58505 75.470315,137.59191 72.246042,124.87625 68.81043,112.24904 65.729521,100.72981 62.181787,89.343853 58.643278,77.959198 56.23325,69.70914 53.523009,61.548224 51.243605,53.260204 c -0.477882,-2.270797 -1.440667,-4.672534 -1.03728,-7.042137 0.04565,-0.268145 0.0081,-0.634765 0.237659,-0.780635 3.310972,-2.103702 6.805189,-3.904075 10.207784,-5.856112 3.850978,2.738794 5.844137,7.410476 7.897336,11.509602 4.640172,9.562354 8.229364,19.588451 11.570753,29.663736 4.067201,13.076079 7.721491,26.277312 10.890257,39.598932 2.967715,12.05049 5.032651,24.29273 6.665045,36.58774 0.680183,6.19444 1.368401,12.41313 1.411354,18.65281 0.01812,2.63118 -0.101942,4.34712 -0.231172,6.94563 -0.212757,2.35067 -0.372033,4.75146 -1.002247,7.04043 -0.0953,0.34613 -0.07664,0.81115 -0.376055,1.00923 -10.07061,6.66202 -7.700666,8.90559 -10.935697,4.89512 -0.169357,-0.48721 -0.385342,-0.96064 -0.508072,-1.46163 -0.319066,-1.30242 -0.488931,-3.3182 -0.571815,-4.58941 -0.253325,-3.88548 -0.156993,-7.7699 -0.09937,-11.65961 0.330983,-10.90857 1.766517,-21.75702 3.343719,-32.54531 1.442114,-10.25782 3.790246,-20.34785 6.055307,-30.44516 1.157624,-5.5206 2.6142,-10.99498 3.232806,-16.614556 0.27264,-2.476743 0.260335,-3.74006 0.324954,-6.166273 -0.04224,-0.886016 -0.01709,-2.658502 -0.377883,-3.632332 -0.07095,-0.191511 -0.205965,-0.476626 -0.409157,-0.456052 -0.210585,0.02133 -0.536732,0.624049 -0.345895,0.5325 3.065274,-1.470511 5.865094,-3.512555 9.048044,-4.707204 0.53139,-0.199449 -0.44893,1.042638 -0.67339,1.563957 -1.95028,7.699931 -1.98622,15.7243 -2.03754,23.61854 0.22969,7.15154 0.34569,14.57969 2.64968,21.44248 0.30087,0.8962 0.72192,1.74746 1.08288,2.62119 0.52628,0.79998 1.26261,2.41656 2.44984,2.68481 0.43048,0.0973 0.86156,-0.1918 1.29235,-0.2877 -2.72427,1.45069 -5.30454,3.21224 -8.17279,4.35206 -0.76514,0.30406 1.21713,-1.12307 1.70893,-1.78338 0.64601,-0.86735 1.12306,-1.84857 1.68459,-2.77286 0.55328,-1.21427 1.17166,-2.40095 1.65986,-3.64282 3.49086,-8.87998 5.12365,-18.83865 7.05517,-28.15426 2.43516,-10.827212 4.92105,-21.683267 8.64621,-32.150803 3.79476,-8.428924 5.75269,-8.94185 15.913,-13.631074 0.62376,-0.28788 1.39277,-0.02196 2.05455,0.162431 0.75777,0.211142 1.42348,0.669991 2.13522,1.004988 6.8577,5.230862 10.71727,13.194919 14.45722,20.74778 3.2361,7.35887 5.66364,15.086272 7.13616,22.993658 0.87488,4.69806 1.02831,7.09476 1.51611,11.81145 0.19452,7.52857 0.602,15.4342 -1.64475,22.74483 -0.29167,0.94905 -0.72343,1.84925 -1.08514,2.77387 -0.42284,0.714 -0.77324,1.4762 -1.26852,2.142 -0.42084,0.56573 -0.86383,1.15546 -1.46206,1.52866 -2.66989,1.66558 -8.35277,6.95778 -13.24238,6.50567 -1.729,-0.15986 -2.77,-0.7706 -4.35091,-1.45343 -0.77578,-0.45589 -1.57547,-0.87334 -2.32735,-1.36766 -2.7154,-1.78524 -5.18311,-3.95178 -7.71874,-5.97355 -2.2164,-1.76723 -3.61612,-2.83421 -5.86879,-4.57417 -4.76047,-3.54936 -9.93418,-6.90639 -15.76316,-8.39255 -0.99496,-0.25368 -2.02198,-0.35886 -3.03296,-0.53828 -2.70971,-0.17043 -5.43026,0.055 -7.92,1.23477 -0.78966,0.37418 -3.020756,1.7533 -2.237439,1.36602 7.578589,-3.74693 9.546949,-6.03621 5.401199,-1.97957 -4.16507,4.373 -6.118516,9.57301 -7.455334,15.34336 -1.239665,6.63797 0.388268,13.18598 2.139651,19.56263 2.381183,7.87697 5.043693,15.663 7.546333,23.50138 2.3983,7.45061 4.28979,15.04563 6.20471,22.63022 1.45229,5.62869 2.94932,11.24798 4.68413,16.7969 1.08214,3.0612 1.85092,6.61774 4.33519,8.92708 0.34598,0.32161 0.76873,0.54917 1.1531,0.82376 1.32375,0.68882 2.71274,0.93903 4.18639,0.5725 2.52505,-0.62804 13.16659,-6.94843 -4.23925,2.67349 5.84731,-4.51583 9.36331,-11.00834 12.49254,-17.53952 4.44512,-10.11129 5.77891,-21.03912 6.65776,-31.93414 1.0009,-13.4978 0.11785,-27.02243 -0.88027,-40.48931 -1.1801,-14.68939 -2.83655,-29.33285 -3.98424,-44.02473 -0.75064,-11.191217 -1.29255,-22.406645 -1.28771,-33.625107 0.15909,-2.54857 -0.12401,-5.215044 0.48594,-7.729342 0.0887,-0.365435 0.0947,-0.85254 0.41537,-1.048848 10.50526,-6.430063 7.94634,-8.514289 11.61874,-4.224356 4.5902,8.458126 6.4517,18.091988 8.53414,27.395672 3.1668,15.873651 5.08067,31.962511 7.38758,47.976081 0.97425,5.12434 1.52127,10.41845 3.17889,15.39618 0.0291,0.0874 1.01847,3.23698 2.07428,3.26835 0.38098,0.0113 0.51368,-0.56326 0.77052,-0.84489 -2.79789,1.28359 -5.32908,3.56076 -8.39366,3.85076 -1.12952,0.10689 0.88751,-2.09193 1.23173,-3.17302 0.4785,-1.50283 0.87333,-3.03242 1.23302,-4.56803 1.57488,-6.72361 2.45013,-13.59171 3.44448,-20.41634 2.27454,-16.86084 4.05867,-33.785226 5.33405,-50.750089 0.41292,-6.137762 0.71692,-12.282961 0.90173,-18.431833 0.055,-1.829848 0.22073,-4.026741 0.0648,-5.905502 3.36216,-1.307412 6.50416,-3.497451 10.08648,-3.922234 0.90459,-0.107262 -0.0367,1.821484 -0.0514,2.732291 -0.0223,1.389674 -0.0428,2.779382 -0.0594,4.169132 -0.0776,6.475034 -0.21894,12.946362 -0.36618,19.420303 -0.58091,16.915183 -1.31269,33.822422 -1.70108,50.743982 -0.0143,10.51839 -0.30854,21.12651 1.35165,31.54841 0.0755,0.52036 1.51663,6.23468 2.92382,5.0938 0.14687,-0.11907 0.21616,-0.31027 0.32423,-0.4654 0.20566,-0.0813 0.41131,-0.16253 0.61697,-0.2438 0,0 -8.86637,6.96958 -8.86637,6.96958 v 0 c -0.20831,0.0834 -0.41663,0.16691 -0.62494,0.25037 -3.00615,-0.22911 -3.57694,-4.12913 -4.13919,-6.44156 -1.53456,-10.56177 -1.08935,-21.28692 -1.03816,-31.92493 0.45255,-16.90782 1.19248,-33.804901 1.65478,-50.711826 0.0794,-6.422864 0.17032,-12.84098 0.10049,-19.264193 -0.0149,-1.368602 -0.0325,-2.737191 -0.0577,-4.105643 -0.0163,-0.883589 -0.72736,-2.063385 -0.0667,-2.650376 2.94199,-2.614044 6.69368,-4.1411 10.04052,-6.211649 -0.4435,1.390221 -0.43074,4.89354 -0.49158,6.028856 -0.33203,6.195116 -0.62784,12.392687 -1.11266,18.578639 -1.34799,16.97599 -3.14577,33.912922 -5.29734,50.806122 -0.9247,6.8125 -1.73818,13.65856 -3.13626,20.39598 -0.32021,1.54306 -0.68392,3.07764 -1.08724,4.6011 -0.29903,1.12953 -0.16229,2.55924 -1.01878,3.35402 -3.19219,2.96218 -7.12645,5.00721 -10.68967,7.51081 -0.47629,-0.0591 -1.01337,0.0628 -1.42887,-0.17739 -1.96433,-1.13571 -2.75076,-6.06882 -3.11843,-7.81609 -0.89448,-4.25081 -1.31919,-7.3532 -2.00943,-11.72635 -2.18008,-15.99756 -4.09603,-32.06002 -7.37493,-47.879358 -2.11411,-9.049478 -3.99738,-18.484733 -8.69542,-26.617022 -3.42179,-2.793289 -1.23547,-0.630362 8.23126,-6.177492 0.27727,-0.16247 -0.5134,0.425596 -0.64013,0.720921 -0.22608,0.52687 -0.3033,1.108591 -0.38823,1.675593 -0.28889,1.928685 -0.30778,4.047434 -0.38366,5.974802 -0.20043,11.229525 0.31344,22.463413 0.99809,33.669886 1.10151,14.69727 2.76315,29.34128 3.97795,44.02925 1.03696,13.49681 1.98288,27.05023 1.05191,40.58539 -0.81071,10.97402 -2.07173,21.97379 -6.35781,32.22586 -3.04552,6.62785 -6.46697,13.1604 -12.07624,18.01119 -3.82187,2.26406 -7.60446,4.59579 -11.46562,6.79216 -2.67364,1.52088 -5.69807,1.6343 -8.31354,-0.007 -0.42205,-0.34624 -0.88168,-0.65117 -1.26615,-1.03871 -2.49744,-2.51747 -3.40642,-6.09489 -4.48859,-9.34989 -1.71556,-5.58284 -3.21733,-11.22853 -4.63419,-16.89408 -1.87507,-7.57587 -3.727629,-15.1628 -6.113757,-22.59879 -2.51677,-7.84545 -5.167705,-15.64642 -7.600053,-23.51895 -1.845313,-6.50826 -3.566901,-13.20115 -2.455088,-20.00855 1.232078,-5.80767 3.136001,-11.39772 7.18834,-15.89335 4.864812,-5.28075 1.633011,-2.14095 13.468808,-9.24512 3.24082,-1.94522 6.8767,-2.42498 10.58695,-1.95375 1.0327,0.22419 2.08211,0.38191 3.09811,0.67256 5.87511,1.68074 11.09545,5.08239 15.92846,8.71602 2.30006,1.76955 3.63727,2.7871 5.90611,4.57652 2.50759,1.97771 4.95991,4.0993 7.68573,5.78148 0.73039,0.45074 1.5095,0.81729 2.26425,1.22594 1.54257,0.5504 2.4111,1.04829 4.06091,0.97039 0.60536,-0.0286 2.26752,-0.73769 1.77782,-0.38065 -2.46313,1.79591 -5.20069,3.18152 -7.80103,4.77228 0.53532,-0.42594 1.14346,-0.77376 1.60598,-1.27782 0.54592,-0.59496 0.92543,-1.32348 1.38815,-1.98522 0.39943,-0.8819 0.8763,-1.73268 1.1983,-2.64571 2.47774,-7.02546 2.11922,-15.18619 2.0097,-22.50042 -0.44863,-4.63828 -0.5904,-7.0983 -1.43203,-11.71496 -1.4262,-7.823289 -3.83353,-15.466673 -7.06332,-22.727993 -3.21935,-6.39627 -6.65217,-13.580621 -12.16298,-18.375474 -0.6612,-0.575299 -1.42094,-1.026435 -2.13141,-1.539653 -0.63491,-0.210976 -1.2405,-0.552873 -1.90475,-0.632925 -0.59366,-0.07155 -2.25633,0.555003 -1.78396,0.188372 2.39493,-1.858806 5.08273,-3.313911 7.72531,-4.799708 0.65972,-0.370927 -1.24965,0.877591 -1.7537,1.442165 -1.42461,1.595667 -2.24406,3.564749 -3.19508,5.441971 -3.94223,10.401331 -6.46553,21.26548 -8.91345,32.09895 -1.917,9.358365 -3.50759,19.256065 -6.75152,28.260615 -0.45524,1.26368 -1.03344,2.47963 -1.55016,3.71945 -0.2979,0.56389 -2.19795,4.47678 -3.05203,5.03281 -2.37592,1.54682 -10.42898,9.5657 -14.406186,4.70008 -0.502187,-0.61436 -0.832774,-1.35094 -1.249159,-2.02641 -0.365548,-0.92166 -0.790739,-1.82184 -1.096642,-2.76497 -2.265307,-6.98417 -2.414397,-14.49871 -2.678534,-21.75918 0.0071,-7.9531 0.04989,-15.981569 1.632112,-23.809139 0.15486,-0.62184 -0.04354,-1.475029 0.464579,-1.865514 3.987755,-3.064565 10.45872,-9.171874 11.91384,-5.087556 0.36019,1.011012 0.33583,2.98673 0.37361,3.902797 -0.0789,2.494298 -0.075,3.767368 -0.35471,6.315728 -0.62153,5.661663 -2.05881,11.176214 -3.26278,16.730154 -2.27841,10.09142 -4.709407,20.16087 -6.176545,30.41334 -1.588865,10.7212 -3.007932,21.51127 -3.293883,32.35675 -0.04526,5.574 -0.366284,11.36249 1.05876,16.8004 3.670342,-0.24418 1.202234,-0.10109 -8.940451,5.60248 -0.282816,0.15904 0.415554,-0.51064 0.538361,-0.81097 0.886341,-2.1676 0.898829,-4.64438 1.226727,-6.91755 0.137708,-2.21832 0.318813,-4.68523 0.336741,-6.90191 0.05033,-6.22214 -0.616945,-12.42945 -1.241947,-18.61015 -1.567021,-12.28061 -3.5467,-24.516 -6.502717,-36.54774 C 78.441599,112.14325 74.807814,98.971705 70.697642,85.944989 67.328152,75.947473 63.719759,65.991739 58.987909,56.54454 57.71054,54.080261 54.811802,47.930088 52.270956,46.489223 c -0.172577,-0.09787 -0.394518,-0.04239 -0.591775,-0.06358 3.020515,-1.861262 6.017842,-3.760695 9.06155,-5.583785 0.174363,-0.104439 -0.352107,0.238048 -0.441452,0.420606 -0.140335,0.286742 -0.193709,0.613878 -0.220522,0.931992 -0.165222,1.960075 0.5027,3.903498 0.884536,5.789662 2.153936,8.325848 4.759338,16.522872 7.167055,24.776986 3.513058,11.409627 7.063584,22.811432 10.133375,34.350656 3.448121,12.6857 6.660771,25.46229 8.409622,38.51281 1.603587,14.19114 2.561452,28.46279 1.67848,42.74696 -0.795018,13.49306 -2.213933,26.97824 -5.14703,40.19246 -1.084194,4.53308 -2.033352,9.19377 -3.739568,13.55012 -0.30717,0.78427 -1.882584,4.41899 -2.881736,5.08234 -3.606186,2.39422 -7.534105,4.26435 -11.301161,6.39653 -0.599575,0.005 -1.209526,0.12725 -1.798724,0.0161 -3.807508,-0.71858 -6.942598,-5.70366 -8.99759,-8.57242 -3.8685,-6.09549 -7.230259,-12.48826 -10.040469,-19.14302 -3.39098,-8.60693 -6.454529,-17.35134 -8.758608,-26.31853 -3.445508,-13.77116 -6.246135,-27.72524 -7.175619,-41.92119 -0.19929,-2.76186 -0.445863,-5.52071 -0.597863,-8.28557 -0.724599,-13.1803 -0.307928,-26.39937 0.691028,-39.55326 0.78159,-8.29848 1.348954,-16.820315 4.032681,-24.765255 3.542157,-1.87575 6.957531,-4.013493 10.626471,-5.627248 0.553365,-0.243395 1.428226,1.736133 1.431245,1.744173 0.914429,2.437326 0.939313,5.133584 1.23775,7.678089 0.564398,10.147726 0.673857,20.338741 -0.613794,30.444181 -0.290073,1.90995 -0.507076,3.83244 -0.870217,5.72986 -1.628624,8.50959 -4.628647,16.81909 -9.282523,24.14338 -0.846325,1.07765 -1.616612,2.21962 -2.538976,3.23296 -4.022497,4.41921 -9.842879,6.9543 -14.837418,9.84511 -2.545598,1.47337 -5.350318,2.31844 -8.2869056,2.40982 -0.9344292,-0.077 -1.8816267,-0.0588 -2.8032873,-0.23096 -5.75216041,-1.07423 -9.8389709,-5.46281 -12.8437358,-10.18882 -0.6565178,-1.26977 -1.3891652,-2.50299 -1.969553,-3.80931 -3.6985823,-8.32466 -4.4363973,-17.5291 -3.6090373,-26.51131 0.302247,-2.09536 0.524141,-4.2039 0.906742,-6.2861 2.1295411,-11.58941 6.5079867,-22.704874 11.9665333,-33.10234 2.9335093,-4.87594 4.0427101,-7.093815 7.56421,-11.511219 1.2598204,-1.58033 2.4103747,-3.322744 4.0337067,-4.526651 4.276141,-3.171298 8.855489,-5.937459 13.524647,-8.49509 1.171551,-0.641745 2.542784,-0.89847 3.87168,-1.034124 1.262951,-0.128921 2.533512,0.167314 3.800268,0.250973 1.240076,0.449794 2.548507,0.743439 3.720227,1.349388 6.183432,3.197725 9.275834,9.671994 11.943932,15.734686 0,0 -9.769925,5.399744 -9.769925,5.399744 z"
       inkscape:connector-curvature="0"
       style="stroke-width:0.26458332" />
  </g>
</svg>
